<?xml version="1.0" encoding="UTF-8"?>
<svg id="Capa_1" xmlns="http://www.w3.org/2000/svg" version="1.1" viewBox="0 0 1192.8 152.86">
  <!-- Generator: Adobe Illustrator 29.5.1, SVG Export Plug-In . SVG Version: 2.1.0 Build 141)  -->
  <defs>
    <style>
      .st0 {
        fill: #fff;
      }
    </style>
  </defs>
  <path class="st0" d="M0,151.11L50.54,33.93h47.05l50.72,117.18h-37.78l-8.92-21.69h-55.62l-9.09,21.69H0ZM58.42,99.87h31.13l-6.82-16.44-7.7-19.76h-2.27l-7.52,19.76-6.82,16.44Z"/>
  <path class="st0" d="M151.81,151.11V33.93h32.88v87.62h67.68v29.56h-100.56Z"/>
  <path class="st0" d="M254.13,151.11l50.54-117.18h47.05l50.72,117.18h-37.78l-8.92-21.69h-55.62l-9.09,21.69h-36.9ZM312.54,99.87h31.13l-6.82-16.44-7.7-19.76h-2.27l-7.52,19.76-6.82,16.44Z"/>
  <path class="st0" d="M405.94,151.11V33.93h32.88v87.62h67.68v29.56h-100.56Z"/>
  <path class="st0" d="M515.25,151.11V33.93h44.6l21.51,48.62,11.54,30.26h2.27l11.02-30.26,20.46-48.62h44.6v117.18h-32.88v-48.45l1.22-19.59h-2.27l-6.65,19.59-17.49,41.45h-39.88l-17.49-41.45-6.65-19.59h-2.27l1.22,19.59v48.45h-32.88Z"/>
  <path class="st0" d="M674.75,151.11l50.54-117.18h47.05l50.72,117.18h-37.78l-8.92-21.69h-55.62l-9.09,21.69h-36.9ZM733.17,99.87h31.13l-6.82-16.44-7.7-19.76h-2.27l-7.52,19.76-6.82,16.44Z"/>
  <path class="st0" d="M824.82,92.52c0-36.55,23.96-60.34,64.71-60.34s62.96,18.71,62.96,50.02v2.97h-36.73v-2.97c0-13.29-6.3-18.54-25.71-18.54-23.79,0-30.26,5.6-30.26,28.86s6.47,28.86,30.26,28.86c19.41,0,25.71-5.25,25.71-18.54v-2.97h36.73v2.97c0,31.31-23.61,50.02-62.96,50.02s-64.71-23.79-64.71-60.34Z"/>
  <path class="st0" d="M961.23,151.11V33.93h104.06v29.56h-71.18v13.99h68.56v29.38h-68.56v14.69h71.18v29.56h-104.06ZM995.34,23.44l23.26-23.44h47.4l-35.33,23.44h-35.33Z"/>
  <path class="st0" d="M1074.57,151.11V33.93h34.98l32.53,43.9,17.14,26.93h2.27l-1.57-25.53v-45.3h32.88v117.18h-34.98l-34.63-45.12-14.87-23.09h-2.27l1.4,22.39v45.82h-32.88Z"/>
</svg>