<?xml version="1.0" encoding="UTF-8"?>
<svg id="Capa_1" xmlns="http://www.w3.org/2000/svg" version="1.1" viewBox="0 0 1170.44 152.57">
  <!-- Generator: Adobe Illustrator 29.5.1, SVG Export Plug-In . SVG Version: 2.1.0 Build 141)  -->
  <defs>
    <style>
      .st0 {
        fill: #fff;
      }
    </style>
  </defs>
  <path class="st0" d="M0,150.39L62.99,4.36h58.63l63.21,146.03h-47.08l-11.12-27.03H57.32l-11.33,27.03H0ZM72.8,86.53h38.8l-8.5-20.49-9.59-24.63h-2.83l-9.37,24.63-8.5,20.49Z"/>
  <path class="st0" d="M189.19,150.39V4.36h40.98v146.03h-40.98Z"/>
  <path class="st0" d="M239.97,122.49c0-15.48,10.68-26.59,35.53-28.99l44.68-4.36v-2.18c0-11.12-4.8-12.86-19.4-12.86-13.51,0-17.65,2.62-17.65,11.77v.87h-40.98v-.44c0-29.21,24.41-47.95,61.68-47.95s56.89,18.74,56.89,49.48v62.55h-38.36v-23.1h-2.18c-4.14,15.48-17.65,25.28-41.41,25.28s-38.8-11.33-38.8-30.08ZM290.97,124.02c19.83,0,27.9-2.4,28.99-12.21l-33.57,3.92c-3.71.44-5.23,1.74-5.23,4.14,0,3.49,3.49,4.14,9.81,4.14Z"/>
  <path class="st0" d="M372.93,150.39V4.36h40.98v146.03h-40.98Z"/>
  <path class="st0" d="M426.98,150.39V40.54h38.36v33.35h2.18c2.4-18.31,12.42-35.53,40.1-35.53,25.94,0,38.36,15.69,40.54,35.53h2.18c2.4-18.31,12.86-35.53,41.41-35.53s41.41,17.87,41.41,41.63v70.4h-40.98v-55.36c0-15.26-4.36-20.05-21.36-20.05s-20.27,4.58-20.27,18.74v56.67h-40.98v-55.36c0-15.26-4.36-20.05-21.36-20.05s-20.27,4.58-20.27,18.74v56.67h-40.98Z"/>
  <path class="st0" d="M642.11,122.49c0-15.48,10.68-26.59,35.53-28.99l44.68-4.36v-2.18c0-11.12-4.79-12.86-19.4-12.86-13.51,0-17.65,2.62-17.65,11.77v.87h-40.98v-.44c0-29.21,24.41-47.95,61.68-47.95s56.89,18.74,56.89,49.48v62.55h-38.36v-23.1h-2.18c-4.14,15.48-17.65,25.28-41.41,25.28s-38.8-11.33-38.8-30.08ZM693.11,124.02c19.83,0,27.9-2.4,28.99-12.21l-33.57,3.92c-3.71.44-5.23,1.74-5.23,4.14,0,3.49,3.49,4.14,9.81,4.14Z"/>
  <path class="st0" d="M772.88,95.46c0-35.74,24.85-57.1,63.86-57.1s61.46,19.18,61.46,48.6v3.49h-40.76v-1.74c0-11.33-8.28-13.73-21.58-13.73-15.04,0-22.23,3.27-22.23,20.49s7.19,20.27,22.23,20.27c13.29,0,21.58-2.18,21.58-13.51v-1.96h40.76v3.71c0,29.21-23.98,48.6-61.46,48.6s-63.86-21.58-63.86-57.1Z"/>
  <path class="st0" d="M906.93,95.46c0-35.74,25.94-57.1,62.55-57.1s62.12,18.96,62.12,54.27c0,3.71-.22,6.54-.65,10.46h-86.09c.65,13.29,6.54,17,23.98,17s20.92-2.83,20.92-9.37v-2.4h40.98v2.62c0,24.41-23.32,41.63-60.37,41.63s-63.42-15.91-63.42-57.1ZM945.51,82.39h46.42c-1.53-9.37-8.06-12.64-23.32-12.64s-21.36,3.27-23.1,12.64ZM947.03,28.33l29.21-28.33h59.28l-44.03,28.33h-44.46Z"/>
  <path class="st0" d="M1042.5,150.39V40.54h38.36v33.35h2.18c2.4-18.31,14.38-35.53,43.81-35.53s43.59,17.87,43.59,41.63v70.4h-40.98v-55.36c0-15.26-5.67-20.05-23.54-20.05s-22.45,4.58-22.45,18.74v56.67h-40.98Z"/>
</svg>